<?xml version="1.0" encoding="utf-8"?>
<!-- Generator: Adobe Illustrator 25.0.0, SVG Export Plug-In . SVG Version: 6.00 Build 0)  -->
<svg version="1.1" id="Слой_1" xmlns="http://www.w3.org/2000/svg" xmlns:xlink="http://www.w3.org/1999/xlink" x="0px" y="0px"
	 viewBox="0 0 512 512" style="enable-background:new 0 0 512 512;" xml:space="preserve">
<style type="text/css">
	.st0{fill:#3ECF8E;stroke:#3ECF8E;stroke-miterlimit:10;}
</style>
<path id="shape.primary" class="st0" d="M47.3,17.8c-16,0-28.4,12.6-28.4,28.8v418.8c0,16.2,12.4,28.8,28.4,28.8h405.1
	c3.6,0,7.1-1.8,8.9-5.4c1.8-3.6,0.9-8.1-1.8-10.8L389.3,406c-2.7-2.7-7.1-3.6-10.7-1.8l0,0c-6.2,2.7-12.4,4.5-19.5,4.5
	c-25.8,0-47.1-21.6-47.1-47.6s21.3-47.6,47.1-47.6c25.8,0,47.1,21.6,47.1,47.6c0,7.2-1.8,13.5-4.4,19.8c-1.8,0.9-1.8,1.8-1.8,2.7
	c0,3.6,0.9,6.3,3.6,8.1l70.2,71c1.8,1.8,4.4,2.7,7.1,2.7c0.9,0,2.7,0,3.6-0.9c3.6-1.8,6.2-5.4,6.2-9V46.5
	c0-16.2-12.4-28.8-28.4-28.8H302.2c-2.7,0-5.3,0.9-7.1,2.7l-99.5,100.7c-2.7,2.7-3.6,6.3-2.7,9.9v0.9l0,0c2.7,6.3,4.4,12.6,4.4,19.8
	c0,26.1-21.3,47.6-47.1,47.6c-25.8,0-47.1-21.6-47.1-47.6s21.3-47.6,47.1-47.6c7.1,0,13.3,1.8,19.5,4.5l0,0c3.6,1.8,8,0.9,10.7-1.8
	l71.1-71.9c2.7-2.7,3.6-7.2,1.8-10.8s-4.4-6.3-8.9-6.3L47.3,17.8L47.3,17.8z M357.3,104.1c25.8,0,47.1,21.6,47.1,47.6
	s-21.3,47.6-47.1,47.6c-7.1,0-13.3-0.9-19.5-4.5c-3.6-1.8-8-0.9-10.7,1.8L194.8,330.5c-2.7,2.7-3.6,7.2-1.8,10.8
	c2.7,6.3,4.4,12.6,4.4,19.8c0,26.1-21.3,47.6-47.1,47.6c-25.8,0-47.1-21.6-47.1-47.6s21.3-47.6,47.1-47.6c7.1,0,13.3,0.9,19.5,4.5
	c3.6,1.8,7.1,0.9,10.7-1.8l132.4-133.9c2.7-2.7,3.6-7.2,1.8-10.8c-2.7-6.3-4.4-12.6-4.4-19.8C310.2,124.7,331.6,104.1,357.3,104.1
	L357.3,104.1z M150.3,131.9c-10.7,0-18.7,8.1-18.7,18.9c0,10.8,8,18.9,18.7,18.9c10.7,0,18.7-8.1,18.7-18.9
	C169,140,161,131.9,150.3,131.9z M357.3,131.9c-10.7,0-18.7,8.1-18.7,18.9c0,10.8,8,18.9,18.7,18.9c10.7,0,18.7-8.1,18.7-18.9
	C376,140,368,131.9,357.3,131.9z M150.3,342.2c-10.7,0-18.7,8.1-18.7,18.9c0,10.8,8,18.9,18.7,18.9c10.7,0,18.7-8.1,18.7-18.9
	C169,350.3,161,342.2,150.3,342.2z M357.3,342.2c-10.7,0-18.7,8.1-18.7,18.9c0,10.8,8,18.9,18.7,18.9c10.7,0,18.7-8.1,18.7-18.9
	C376,350.3,368,342.2,357.3,342.2z"/>
</svg>
